#!OML:ASF F:\VICON\USERDATA\INSTALL\rory3\rory3.ASF
:FULLY-SPECIFIED
:DEGREES
22
root -0.672654 16.224 -30.2903 2.65631 0.117028 4.77587
lowerback 13.8377 -0.589277 -9.56489
upperback -4.47305 -2.38285 1.93726
thorax -12.3639 -0.270776 8.17908
lowerneck -8.76436 -5.27042 -3.17008
upperneck 16.9311 -7.15321 2.29764
head 6.80454 -3.46519 0.645716
rclavicle 2.8625e-014 1.59028e-015
rhumerus -47.2142 -3.37521 -80.536
rradius 22.4148
rwrist 12.4674
rhand -10.6481 21.7494
rfingers 7.12502
rthumb 15.3595 -7.66011
lclavicle 2.8625e-014 1.59028e-015
lhumerus -36.3792 5.08294 86.9782
lradius 19.8103
lwrist -3.47919
lhand -5.79121 18.3978
lfingers 7.12502
lthumb 20.0331 47.385
rfemur -33.8244 19.2505 6.51407
rtibia 31.6715
rfoot -9.26353 -11.3445
rtoes 32.981
lfemur 15.2377 -15.017 -32.9856
ltibia 7.53197
lfoot -17.2128 12.5611
ltoes -3.90136
23
root -0.719865 16.2189 -30.2042 2.74146 0.416272 4.57912
lowerback 12.8305 -0.891133 -9.24661
upperback -4.15728 -2.61561 1.91053
thorax -11.3509 -0.489197 7.94357
lowerneck -8.03779 -5.0955 -3.44736
upperneck 16.2319 -6.96874 2.8719
head 6.47942 -3.36036 0.917154
rclavicle -1.75955e-014 2.3059e-014
rhumerus -46.572 -3.5895 -80.6933
rradius 22.0425
rwrist 12.7508
rhand -10.8805 21.8741
rfingers 7.12502
rthumb 15.1356 -7.5524
lclavicle -1.75955e-014 2.3059e-014
lhumerus -35.9014 5.70943 86.4316
lradius 19.5743
lwrist -3.81047
lhand -5.6084 18.3106
lfingers 7.12502
lthumb 20.2088 47.2794
rfemur -33.6807 18.5643 7.15195
rtibia 32.0367
rfoot -9.18094 -10.9887
rtoes 33.6303
lfemur 14.5927 -15.189 -32.5923
ltibia 9.16798
lfoot -17.6534 12.5122
ltoes -5.48923
24
root -0.762646 16.2221 -30.111 2.73545 0.447408 4.42236
lowerback 13.3613 -0.820424 -9.49038
upperback -4.51907 -2.60729 2.16513
thorax -12.0733 -0.390437 8.41926
lowerneck -7.84718 -5.04365 -3.53833
upperneck 16.5439 -6.86329 2.64474
head 6.53744 -3.33374 0.870651
rclavicle 1.65861e-014 -2.14687e-014
rhumerus -47.1956 -3.19024 -80.5713
rradius 22.2341
rwrist 12.4449
rhand -11.6564 22.621
rfingers 7.12502
rthumb 14.3881 -6.86029
lclavicle 1.65861e-014 -2.14687e-014
lhumerus -36.4159 6.79202 86.1564
lradius 19.1692
lwrist -4.68439
lhand -5.92985 17.4631
lfingers 7.12502
lthumb 19.8998 46.4642
rfemur -33.5228 18.216 7.70542
rtibia 32.4238
rfoot -9.05331 -10.8152
rtoes 34.1872
lfemur 14.5289 -15.0786 -32.2854
ltibia 9.89618
lfoot -17.6051 12.4734
ltoes -6.86808
25
root -0.794282 16.2294 -30.0081 2.69711 0.325885 4.30327
lowerback 13.3998 -0.637805 -9.21138
upperback -4.39357 -2.31943 2.0601
thorax -12.0227 -0.289232 8.0729
lowerneck -8.60211 -5.26713 -3.14059
upperneck 16.7398 -7.17489 2.43178
head 6.71922 -3.46583 0.688744
rclavicle -9.70318e-015 -2.38542e-015
rhumerus -46.7474 -4.21182 -80.213
rradius 22.0136
rwrist 12.8738
rhand -11.7049 22.8627
rfingers 7.12502
rthumb 14.3414 -6.62192
lclavicle -9.70318e-015 -2.38542e-015
lhumerus -36.0284 6.33602 86.3037
lradius 19.3999
lwrist -4.21989
lhand -6.05481 18.0125
lfingers 7.12502
lthumb 19.7797 47.0261
rfemur -33.3367 18.0993 8.16837
rtibia 32.8382
rfoot -8.85771 -10.8215
rtoes 34.0754
lfemur 14.4207 -14.8017 -32.0877
ltibia 10.7469
lfoot -17.5339 12.4528
ltoes -7.95244
26
root -0.826687 16.2271 -29.9059 2.6616 0.263384 4.24008
lowerback 13.2828 -0.589042 -8.95147
upperback -4.25562 -2.1996 1.95976
thorax -11.8257 -0.275567 7.77099
lowerneck -9.07744 -5.34863 -2.98286
upperneck 16.8689 -7.3043 2.44076
head 6.84201 -3.5105 0.639327
rclavicle -4.74288e-015 -3.97569e-015
rhumerus -46.6106 -4.34147 -80.3137
rradius 22.1034
rwrist 12.5581
rhand -10.5193 19.9492
rfingers 7.12502
rthumb 15.4835 -9.45081
lclavicle -4.74288e-015 -3.97569e-015
lhumerus -35.8002 5.84188 86.4353
lradius 19.9466
lwrist -3.65345
lhand -5.65916 19.0335
lfingers 7.12502
lthumb 20.16 48.0074
rfemur -33.1728 17.7577 8.62364
rtibia 33.3191
rfoot -8.52035 -10.5262
rtoes 33.9124
lfemur 14.1588 -14.6086 -31.9465
ltibia 11.9153
lfoot -17.6538 12.4229
ltoes -8.75767
27
root -0.859181 16.2106 -29.7921 2.45507 -0.140878 4.22392
lowerback 13.0112 -0.474223 -8.8808
upperback -4.14499 -2.00566 1.92162
thorax -11.5769 -0.210726 7.62725
lowerneck -9.06462 -5.27817 -3.17152
upperneck 17.0371 -7.22127 2.64694
head 6.90658 -3.46397 0.741066
rclavicle 3.12465e-015 -1.82882e-014
rhumerus -46.9591 -4.06046 -80.4602
rradius 22.4693
rwrist 12.1889
rhand -11.0718 21.3905
rfingers 7.12502
rthumb 14.9514 -8.04979
lclavicle 3.12465e-015 -1.82882e-014
lhumerus -35.9295 5.97749 86.3183
lradius 20.2373
lwrist -3.65311
lhand -5.38613 19.0246
lfingers 7.12502
lthumb 20.4224 47.9706
rfemur -32.9825 17.319 9.18214
rtibia 33.8825
rfoot -7.84827 -9.77126
rtoes 33.4389
lfemur 14.1421 -14.1884 -31.9533
ltibia 13.1076
lfoot -17.9626 12.3279
ltoes -9.12125
28
root -0.930434 16.2143 -29.7465 2.60625 0.827113 4.31737
lowerback 13.8562 -0.674669 -9.32624
upperback -4.46668 -2.44447 2.01753
thorax -12.3559 -0.315446 8.14757
lowerneck -8.98555 -5.21674 -3.25317
upperneck 17.2042 -7.1341 2.65558
head 6.94727 -3.42637 0.7652
rclavicle 5.70885e-015 -3.02153e-014
rhumerus -47.1651 -4.50149 -79.9538
rradius 22.1344
rwrist 13.1584
rhand -11.6492 22.7683
rfingers 7.12502
rthumb 14.3951 -6.71257
lclavicle 5.70885e-015 -3.02153e-014
lhumerus -36.2099 6.24106 86.2185
lradius 20.3233
lwrist -3.73211
lhand -5.56199 18.4666
lfingers 7.12502
lthumb 20.2534 47.4307
rfemur -33.0145 16.5019 9.44474
rtibia 34.4715
rfoot -7.78118 -9.68798
rtoes 34.076
lfemur 13.2696 -14.2149 -31.3603
ltibia 14.4495
lfoot -17.5961 11.2007
ltoes -10.2823
